{
  "accessors": [
    {
      "bufferView": 2,
      "componentType": 5126,
      "count": 14138,
      "max": [
        2.8466031551361084,
        0.19171342253684998,
        2.8465769290924072
      ],
      "min": [
        -2.8467342853546143,
        -0.19959354400634766,
        -2.8467605113983154
      ],
      "type": "VEC3"
    },
    {
      "bufferView": 2,
      "byteOffset": 169656,
      "componentType": 5126,
      "count": 14138,
      "max": [
        0.9998034238815308,
        0.9943174123764038,
        0.9998033046722412
      ],
      "min": [
        -0.9998034834861755,
        -0.998092532157898,
        -0.9998034238815308
      ],
      "type": "VEC3"
    },
    {
      "bufferView": 3,
      "componentType": 5126,
      "count": 14138,
      "max": [
        0.999821662902832,
        0.9998033046722412,
        0.9997312426567078,
        1.0
      ],
      "min": [
        -0.999821662902832,
        -0.9998034238815308,
        -0.9997313022613525,
        1.0
      ],
      "type": "VEC4"
    },
    {
      "bufferView": 1,
      "componentType": 5126,
      "count": 14138,
      "max": [
        0.972709059715271,
        0.9874470829963684
      ],
      "min": [
        0.012750505469739437,
        0.012807901948690414
      ],
      "type": "VEC2"
    },
    {
      "bufferView": 1,
      "byteOffset": 113104,
      "componentType": 5126,
      "count": 14138,
      "max": [
        0.972709059715271,
        0.9874470829963684
      ],
      "min": [
        0.012750505469739437,
        0.012807901948690414
      ],
      "type": "VEC2"
    },
    {
      "bufferView": 1,
      "byteOffset": 226208,
      "componentType": 5126,
      "count": 14138,
      "max": [
        0.972709059715271,
        0.9874470829963684
      ],
      "min": [
        0.012750505469739437,
        0.012807901948690414
      ],
      "type": "VEC2"
    },
    {
      "bufferView": 0,
      "componentType": 5125,
      "count": 58542,
      "type": "SCALAR"
    }
  ],
  "asset": {
    "extras": {
      "author": "AnshiNoWara NG+ (https://sketchfab.com/Anshinowara2)",
      "license": "CC-BY-4.0 (http://creativecommons.org/licenses/by/4.0/)",
      "source": "https://sketchfab.com/3d-models/archery-target-low-poly-afdf35f842f44190b6ba6cf3a493e7b4",
      "title": "Archery Target LOW POLY"
    },
    "generator": "Sketchfab-15.37.0",
    "version": "2.0"
  },
  "bufferViews": [
    {
      "buffer": 0,
      "byteLength": 234168,
      "name": "floatBufferViews",
      "target": 34963
    },
    {
      "buffer": 0,
      "byteLength": 339312,
      "byteOffset": 234168,
      "byteStride": 8,
      "name": "floatBufferViews",
      "target": 34962
    },
    {
      "buffer": 0,
      "byteLength": 339312,
      "byteOffset": 573480,
      "byteStride": 12,
      "name": "floatBufferViews",
      "target": 34962
    },
    {
      "buffer": 0,
      "byteLength": 226208,
      "byteOffset": 912792,
      "byteStride": 16,
      "name": "floatBufferViews",
      "target": 34962
    }
  ],
  "buffers": [
    {
      "byteLength": 1139000,
      "uri": "scene.bin"
    }
  ],
  "images": [
    {
      "uri": "textures/Target_baseColor.png"
    },
    {
      "uri": "textures/Target_metallicRoughness.png"
    },
    {
      "uri": "textures/Target_normal.png"
    }
  ],
  "materials": [
    {
      "doubleSided": true,
      "name": "Target",
      "normalTexture": {
        "index": 2
      },
      "pbrMetallicRoughness": {
        "baseColorTexture": {
          "index": 0
        },
        "metallicRoughnessTexture": {
          "index": 1
        }
      }
    }
  ],
  "meshes": [
    {
      "name": "Target_Target_0",
      "primitives": [
        {
          "attributes": {
            "NORMAL": 1,
            "POSITION": 0,
            "TANGENT": 2,
            "TEXCOORD_0": 3,
            "TEXCOORD_1": 4,
            "TEXCOORD_2": 5
          },
          "indices": 6,
          "material": 0,
          "mode": 4
        }
      ]
    }
  ],
  "nodes": [
    {
      "children": [
        1
      ],
      "matrix": [
        1.0,
        0.0,
        0.0,
        0.0,
        0.0,
        2.220446049250313e-16,
        -1.0,
        0.0,
        0.0,
        1.0,
        2.220446049250313e-16,
        0.0,
        0.0,
        0.0,
        0.0,
        1.0
      ],
      "name": "Sketchfab_model"
    },
    {
      "children": [
        2
      ],
      "matrix": [
        0.009999999776482582,
        0.0,
        0.0,
        0.0,
        0.0,
        0.0,
        0.009999999776482582,
        0.0,
        0.0,
        -0.009999999776482582,
        0.0,
        0.0,
        0.0,
        0.0,
        0.0,
        1.0
      ],
      "name": "Archery Target.fbx"
    },
    {
      "children": [
        3
      ],
      "name": "RootNode"
    },
    {
      "children": [
        4
      ],
      "matrix": [
        100.0,
        0.0,
        0.0,
        0.0,
        0.0,
        -1.629206793918314e-05,
        -99.99999999999868,
        0.0,
        0.0,
        99.99999999999868,
        -1.629206793918314e-05,
        0.0,
        0.0,
        0.0,
        0.0,
        1.0
      ],
      "name": "Target"
    },
    {
      "mesh": 0,
      "name": "Target_Target_0"
    }
  ],
  "samplers": [
    {
      "magFilter": 9729,
      "minFilter": 9987,
      "wrapS": 10497,
      "wrapT": 10497
    }
  ],
  "scene": 0,
  "scenes": [
    {
      "name": "Sketchfab_Scene",
      "nodes": [
        0
      ]
    }
  ],
  "textures": [
    {
      "sampler": 0,
      "source": 0
    },
    {
      "sampler": 0,
      "source": 1
    },
    {
      "sampler": 0,
      "source": 2
    }
  ]
}
