{
  "accessors": [
    {
      "bufferView": 2,
      "componentType": 5126,
      "count": 72,
      "max": [
        1.7547261714935303,
        0.8559162616729736,
        1.543041467666626
      ],
      "min": [
        -1.752384901046753,
        -2.671078681945801,
        -0.3194328248500824
      ],
      "type": "VEC3"
    },
    {
      "bufferView": 2,
      "byteOffset": 864,
      "componentType": 5126,
      "count": 72,
      "max": [
        1.0,
        0.9543898105621338,
        0.983613133430481
      ],
      "min": [
        -1.0,
        -0.9543898701667786,
        -0.983613133430481
      ],
      "type": "VEC3"
    },
    {
      "bufferView": 1,
      "componentType": 5126,
      "count": 72,
      "max": [
        0.875,
        1.0
      ],
      "min": [
        0.125,
        0.0
      ],
      "type": "VEC2"
    },
    {
      "bufferView": 0,
      "componentType": 5125,
      "count": 108,
      "type": "SCALAR"
    },
    {
      "bufferView": 2,
      "byteOffset": 1728,
      "componentType": 5126,
      "count": 660,
      "max": [
        1.2199575901031494,
        1.3198034763336182,
        0.377489298582077
      ],
      "min": [
        -1.2200427055358887,
        -1.152515172958374,
        -0.445282906293869
      ],
      "type": "VEC3"
    },
    {
      "bufferView": 2,
      "byteOffset": 9648,
      "componentType": 5126,
      "count": 660,
      "max": [
        0.9997168779373169,
        0.9841434359550476,
        0.9844222068786621
      ],
      "min": [
        -0.9997169375419617,
        -0.9841434359550476,
        -0.17577122151851654
      ],
      "type": "VEC3"
    },
    {
      "bufferView": 1,
      "byteOffset": 576,
      "componentType": 5126,
      "count": 660,
      "max": [
        1.0,
        0.9900000095367432
      ],
      "min": [
        8.270144462585449e-07,
        0.0
      ],
      "type": "VEC2"
    },
    {
      "bufferView": 0,
      "byteOffset": 432,
      "componentType": 5125,
      "count": 1182,
      "type": "SCALAR"
    },
    {
      "bufferView": 2,
      "byteOffset": 17568,
      "componentType": 5126,
      "count": 132,
      "max": [
        1.2199575901031494,
        1.3198034763336182,
        -0.016279548406600952
      ],
      "min": [
        -1.2200427055358887,
        -1.0821868181228638,
        -0.445282906293869
      ],
      "type": "VEC3"
    },
    {
      "bufferView": 2,
      "byteOffset": 19152,
      "componentType": 5126,
      "count": 132,
      "max": [
        1.1108092223821586e-08,
        0.17582100629806519,
        -0.9844221472740173
      ],
      "min": [
        1.1108092223821586e-08,
        0.17582100629806519,
        -0.9844221472740173
      ],
      "type": "VEC3"
    },
    {
      "bufferView": 1,
      "byteOffset": 5856,
      "componentType": 5126,
      "count": 132,
      "max": [
        0.9998999834060669,
        0.9999000430107117
      ],
      "min": [
        9.998001041822135e-05,
        9.995698928833008e-05
      ],
      "type": "VEC2"
    },
    {
      "bufferView": 0,
      "byteOffset": 5160,
      "componentType": 5125,
      "count": 390,
      "type": "SCALAR"
    }
  ],
  "asset": {
    "extras": {
      "author": "MrEliptik (https://sketchfab.com/mreliptik)",
      "license": "CC-BY-4.0 (http://creativecommons.org/licenses/by/4.0/)",
      "source": "https://sketchfab.com/3d-models/archery-target-bfa271fc02a94640886a9dfc2cd6ad4a",
      "title": "Archery target"
    },
    "generator": "Sketchfab-12.68.0",
    "version": "2.0"
  },
  "bufferViews": [
    {
      "buffer": 0,
      "byteLength": 6720,
      "name": "floatBufferViews",
      "target": 34963
    },
    {
      "buffer": 0,
      "byteLength": 6912,
      "byteOffset": 6720,
      "byteStride": 8,
      "name": "floatBufferViews",
      "target": 34962
    },
    {
      "buffer": 0,
      "byteLength": 20736,
      "byteOffset": 13632,
      "byteStride": 12,
      "name": "floatBufferViews",
      "target": 34962
    }
  ],
  "buffers": [
    {
      "byteLength": 34368,
      "uri": "scene.bin"
    }
  ],
  "images": [
    {
      "uri": "textures/Target_baseColor.png"
    }
  ],
  "materials": [
    {
      "doubleSided": true,
      "name": "WoodLegs",
      "pbrMetallicRoughness": {
        "baseColorFactor": [
          0.184465,
          0.0600838,
          0.0215823,
          1.0
        ],
        "metallicFactor": 0.0,
        "roughnessFactor": 0.5
      }
    },
    {
      "doubleSided": true,
      "name": "Black",
      "pbrMetallicRoughness": {
        "baseColorFactor": [
          0.0,
          0.0,
          0.0,
          1.0
        ],
        "metallicFactor": 0.0,
        "roughnessFactor": 0.5
      }
    },
    {
      "doubleSided": true,
      "name": "Target",
      "pbrMetallicRoughness": {
        "baseColorTexture": {
          "index": 0
        },
        "metallicFactor": 0.0,
        "roughnessFactor": 0.5
      }
    }
  ],
  "meshes": [
    {
      "name": "Object_0",
      "primitives": [
        {
          "attributes": {
            "NORMAL": 1,
            "POSITION": 0,
            "TEXCOORD_0": 2
          },
          "indices": 3,
          "material": 0,
          "mode": 4
        }
      ]
    },
    {
      "name": "Object_1",
      "primitives": [
        {
          "attributes": {
            "NORMAL": 5,
            "POSITION": 4,
            "TEXCOORD_0": 6
          },
          "indices": 7,
          "material": 1,
          "mode": 4
        }
      ]
    },
    {
      "name": "Object_2",
      "primitives": [
        {
          "attributes": {
            "NORMAL": 9,
            "POSITION": 8,
            "TEXCOORD_0": 10
          },
          "indices": 11,
          "material": 2,
          "mode": 4
        }
      ]
    }
  ],
  "nodes": [
    {
      "children": [
        1
      ],
      "matrix": [
        1.0,
        0.0,
        0.0,
        0.0,
        0.0,
        2.220446049250313e-16,
        -1.0,
        0.0,
        0.0,
        1.0,
        2.220446049250313e-16,
        0.0,
        0.0,
        0.0,
        0.0,
        1.0
      ],
      "name": "Sketchfab_model"
    },
    {
      "children": [
        2
      ],
      "name": "root"
    },
    {
      "children": [
        3
      ],
      "matrix": [
        1.0,
        0.0,
        0.0,
        0.0,
        0.0,
        2.220446049250313e-16,
        1.0,
        0.0,
        0.0,
        -1.0,
        2.220446049250313e-16,
        0.0,
        0.0,
        0.0,
        0.0,
        1.0
      ],
      "name": "GLTF_SceneRootNode"
    },
    {
      "children": [
        4,
        5,
        6
      ],
      "matrix": [
        1.0,
        0.0,
        0.0,
        0.0,
        0.0,
        1.0,
        0.0,
        0.0,
        0.0,
        0.0,
        1.0,
        0.0,
        0.0003349376784171909,
        2.657334089279175,
        -0.1328267753124237,
        1.0
      ],
      "name": "Target_0"
    },
    {
      "mesh": 0,
      "name": "Object_4"
    },
    {
      "mesh": 1,
      "name": "Object_5"
    },
    {
      "mesh": 2,
      "name": "Object_6"
    }
  ],
  "samplers": [
    {
      "magFilter": 9729,
      "minFilter": 9987,
      "wrapS": 10497,
      "wrapT": 10497
    }
  ],
  "scene": 0,
  "scenes": [
    {
      "name": "Sketchfab_Scene",
      "nodes": [
        0
      ]
    }
  ],
  "textures": [
    {
      "sampler": 0,
      "source": 0
    }
  ]
}
